<?xml version="1.0" encoding="utf-8"?><!-- Uploaded to: SVG Repo, www.svgrepo.com, Generator: SVG Repo Mixer Tools -->
<svg width="800px" height="800px" viewBox="-5.21 0 99.408 99.408" xmlns="http://www.w3.org/2000/svg">
  <path id="Path_21" data-name="Path 21" d="M714.449,143.5l-18.168,18.167a2,2,0,1,0,2.828,2.827l18.166-18.165a2,2,0,0,0-2.826-2.829Zm25.94-2.41a2,2,0,0,0-2.829,0l-18.166,18.168a2,2,0,0,0,2.829,2.828l18.166-18.168A2,2,0,0,0,740.389,141.091Zm-31.346,28.517-6.522,6.522a2,2,0,1,0,2.829,2.829l6.521-6.521a2,2,0,1,0-2.828-2.83ZM784.1,128.64l-9.089-9.088a2,2,0,0,0-.082-2.74l-9.086-9.09.375-.375a2,2,0,0,0,0-2.828l-9.078-9.079,1.392-1.4a2,2,0,0,0,0-2.828l-10.49-10.492a2,2,0,0,0-2.83,0L727.383,98.559l-4.436-4.434a2,2,0,0,0-2.828,0L708.58,105.661a2,2,0,0,0-.574,1.618l1.9,18.594L699.41,136.368a2,2,0,0,0,2.828,2.827L713.4,128.029a2,2,0,0,0,.574-1.616l-1.9-18.6,9.451-9.451,4.434,4.435a2,2,0,0,0,2.83,0l17.834-17.836,7.658,7.661c-.047.038-.1.07-.141.114l-8.861,8.861a2,2,0,0,0,2.828,2.829l6.18-6.18,7.683,7.683-.375.375a2.1,2.1,0,0,0-.142.173L753.74,114.2a2,2,0,0,0,2.83,2.83l6.463-6.465,7.592,7.593-8.59,8.59a2,2,0,0,0,2.83,2.829l7.26-7.261,7.736,7.736L756.4,153.51l-7.24,1.34a2.02,2.02,0,0,0-1.051.553L735.7,167.818a2,2,0,0,0,2.828,2.829L750.5,158.669l7.242-1.339a1.987,1.987,0,0,0,1.051-.552L784.1,131.47a2,2,0,0,0,0-2.83Z" transform="translate(-695.695 -80.137)" fill="#3b3859"/>
</svg>